name C:\Users\u0101727\Documents\MyRepositories\upper-imu-dc\Results\main_tracking\Case_47\FLX03_angularVelocities_bodyFrame.mot
datacolumns 4
datarows 94
range 5.38000000 6.31000000
endheader 
time	radius_imu_x	radius_imu_y	radius_imu_z	
          5.38000000	          1.30069658	         -0.57647407	          0.51501037	
          5.39000000	          1.31408556	         -0.60439307	          0.50654866	
          5.40000000	          1.32609376	         -0.63169894	          0.49862852	
          5.41000000	          1.33669355	         -0.65777400	          0.49148573	
          5.42000000	          1.34584117	         -0.68192569	          0.48534722	
          5.43000000	          1.35346608	         -0.70338746	          0.48042699	
          5.44000000	          1.35946632	         -0.72132600	          0.47692278	
          5.45000000	          1.36371202	         -0.73486080	          0.47501292	
          5.46000000	          1.36605759	         -0.74310116	          0.47485285	
          5.47000000	          1.36636125	         -0.74520537	          0.47657128	
          5.48000000	          1.36450886	         -0.74046399	          0.48026619	
          5.49000000	          1.36043768	         -0.72840240	          0.48600129	
          5.50000000	          1.35415562	         -0.70888821	          0.49380391	
          5.51000000	          1.34575200	         -0.68221668	          0.50366507	
          5.52000000	          1.33539723	         -0.64913753	          0.51554212	
          5.53000000	          1.32333172	         -0.61079631	          0.52936332	
          5.54000000	          1.30984788	         -0.56859939	          0.54503314	
          5.55000000	          1.29527153	         -0.52404570	          0.56243670	
          5.56000000	          1.27994665	         -0.47857275	          0.58144258	
          5.57000000	          1.26422314	         -0.43344724	          0.60190391	
          5.58000000	          1.24844345	         -0.38970806	          0.62365962	
          5.59000000	          1.23292418	         -0.34815208	          0.64653668	
          5.60000000	          1.21793250	         -0.30934404	          0.67035324	
          5.61000000	          1.20366244	         -0.27363555	          0.69492061	
          5.62000000	          1.19021977	         -0.24118678	          0.72004209	
          5.63000000	          1.17762269	         -0.21198985	          0.74550855	
          5.64000000	          1.16581906	         -0.18589225	          0.77109245	
          5.65000000	          1.15471431	         -0.16261835	          0.79654324	
          5.66000000	          1.14420107	         -0.14178967	          0.82158753	
          5.67000000	          1.13418266	         -0.12294842	          0.84593639	
          5.68000000	          1.12458570	         -0.10558826	          0.86929988	
          5.69000000	          1.11536097	         -0.08919014	          0.89140670	
          5.70000000	          1.10647470	         -0.07325787	          0.91202469	
          5.71000000	          1.09789472	         -0.05734946	          0.93097751	
          5.72000000	          1.08957727	         -0.04110269	          0.94815452	
          5.73000000	          1.08145904	         -0.02425613	          0.96351301	
          5.74000000	          1.07345714	         -0.00666688	          0.97707429	
          5.75000000	          1.06547712	          0.01167751	          0.98891618	
          5.76000000	          1.05742642	          0.03065623	          0.99916453	
          5.77000000	          1.04922862	          0.05002513	          1.00798509	
          5.78000000	          1.04083373	          0.06944017	          1.01557572	
          5.79000000	          1.03222188	          0.08849064	          1.02215800	
          5.80000000	          1.02340086	          0.10673561	          1.02796597	
          5.81000000	          1.01440006	          0.12373737	          1.03323050	
          5.82000000	          1.00526368	          0.13908932	          1.03815903	
          5.83000000	          0.99604471	          0.15243848	          1.04291294	
          5.84000000	          0.98680027	          0.16350258	          1.04758692	
          5.85000000	          0.97758834	          0.17207987	          1.05219535	
          5.86000000	          0.96846643	          0.17805027	          1.05666963	
          5.87000000	          0.95949227	          0.18136917	          1.06086754	
          5.88000000	          0.95072527	          0.18205794	          1.06459161	
          5.89000000	          0.94222661	          0.18019558	          1.06761045	
          5.90000000	          0.93405598	          0.17591435	          1.06967750	
          5.91000000	          0.92626464	          0.16939925	          1.07054455	
          5.92000000	          0.91888571	          0.16088935	          1.06997145	
          5.93000000	          0.91192424	          0.15067897	          1.06773553	
          5.94000000	          0.90534960	          0.13911808	          1.06364338	
          5.95000000	          0.89909212	          0.12661321	          1.05754494	
          5.96000000	          0.89304567	          0.11362969	          1.04934808	
          5.97000000	          0.88707767	          0.10069456	          1.03903061	
          5.98000000	          0.88104676	          0.08839999	          1.02664717	
          5.99000000	          0.87482685	          0.07740654	          1.01232971	
          6.00000000	          0.86833408	          0.06844500	          0.99628148	
          6.01000000	          0.86155094	          0.06231614	          0.97876519	
          6.02000000	          0.85454241	          0.05988503	          0.96008432	
          6.03000000	          0.84745430	          0.06207182	          0.94056127	
          6.04000000	          0.84049325	          0.06983343	          0.92050960	
          6.05000000	          0.83387788	          0.08415209	          0.90021748	
          6.06000000	          0.82777680	          0.10601874	          0.87993905	
          6.07000000	          0.82225886	          0.13641088	          0.85989354	
          6.08000000	          0.81723225	          0.17629454	          0.84031341	
          6.09000000	          0.81251942	          0.22649279	          0.82137849	
          6.10000000	          0.80784363	          0.28769622	          0.80330173	
          6.11000000	          0.80296595	          0.36026576	          0.78622059	
          6.12000000	          0.79772195	          0.44420034	          0.77021584	
          6.13000000	          0.79190030	          0.53924902	          0.75546891	
          6.14000000	          0.78537225	          0.64471155	          0.74211313	
          6.15000000	          0.77811206	          0.75937402	          0.73019776	
          6.16000000	          0.77013414	          0.88155841	          0.71973703	
          6.17000000	          0.76149263	          1.00912023	          0.71068882	
          6.18000000	          0.75225466	          1.13952989	          0.70297441	
          6.19000000	          0.74244012	          1.27003946	          0.69654366	
          6.20000000	          0.73204209	          1.39776542	          0.69132919	
          6.21000000	          0.72106311	          1.51979986	          0.68718765	
          6.22000000	          0.70949225	          1.63346426	          0.68395069	
          6.23000000	          0.69728922	          1.73655535	          0.68143430	
          6.24000000	          0.68440933	          1.82755800	          0.67943601	
          6.25000000	          0.67080374	          1.90583944	          0.67775874	
          6.26000000	          0.65641513	          1.97170019	          0.67620048	
          6.27000000	          0.64120098	          2.02625244	          0.67454160	
          6.28000000	          0.62513461	          2.07119743	          0.67256782	
          6.29000000	          0.60821115	          2.10853427	          0.67010011	
          6.30000000	          0.59047366	          2.14024641	          0.66700281	
          6.31000000	          0.57203015	          2.16804457	          0.66318769	
